<?xml version="1.0" encoding="UTF-8" standalone="no"?>
<!DOCTYPE svg PUBLIC "-//W3C//DTD SVG 1.1//EN" "http://www.w3.org/Graphics/SVG/1.1/DTD/svg11.dtd">
<svg width="100%" height="100%" viewBox="0 0 5689 5689" version="1.1" xmlns="http://www.w3.org/2000/svg" xmlns:xlink="http://www.w3.org/1999/xlink" xml:space="preserve" xmlns:serif="http://www.serif.com/" style="fill-rule:evenodd;clip-rule:evenodd;stroke-linejoin:round;stroke-miterlimit:2;">
    <g transform="matrix(1,0,0,1,-7.94923,4.27354)">
        <g id="Layer1">
            <g>
                <g transform="matrix(1,0,0,1,-434.393,-0.137875)">
                    <path d="M4163.23,1963.33C4140.39,1972.07 4125.25,1993.94 4125.12,2018.4C4124.95,2052.96 4119.52,2083.93 4117.37,2109.72C4095.83,2368.18 4088.8,2592.57 4110.53,2853.29C4122.34,2995.02 4102.98,3183.65 4114.8,3325.53C4119.45,3381.28 4108.12,3439.26 4115.06,3494.74C4124.42,3569.63 4107.08,3635.59 4126.96,3713.6C4131.51,3731.44 4144.09,3746.16 4161.02,3753.43C4177.94,3760.7 4197.28,3759.68 4213.36,3750.69C4329.01,3685.97 4428.54,3597.96 4479.72,3495.6C4561.96,3331.13 4668.3,3104.98 4703.85,2927.24C4735.2,2770.51 4663.55,2574.12 4609.01,2437.79C4582.51,2371.52 4580.33,2299.72 4542.65,2236.92C4487.15,2144.43 4371.82,2038.11 4288.86,1989.88C4257.5,1971.65 4229.31,1961.3 4208.48,1958.64C4190.69,1956.37 4175.52,1958.63 4163.23,1963.33ZM4237.66,2098.23C4245.06,2102.42 4252.5,2106.98 4259.21,2111.68C4324.05,2157.13 4401.15,2231.54 4440.98,2297.92C4455.8,2322.61 4462.79,2349.37 4469.26,2376.25C4477.8,2411.69 4485.19,2447.49 4498.93,2481.82C4546.11,2599.78 4614.71,2768.38 4587.59,2903.98C4553.87,3072.58 4451.68,3286.57 4373.68,3442.57C4344.14,3501.66 4293.65,3553.7 4233.18,3597.72C4233.76,3558.73 4237.8,3520.78 4232.7,3480.04C4225.97,3426.15 4237.47,3369.83 4232.96,3315.68C4221.13,3173.81 4240.49,2985.18 4228.68,2843.44C4207.53,2589.63 4214.56,2371.18 4235.52,2119.57C4236.09,2112.77 4236.84,2105.65 4237.66,2098.23Z" style="fill:white;"/>
                </g>
                <g transform="matrix(1,0,0,1,-434.393,-0.137875)">
                    <path d="M1847.65,986.045C1837.81,985.654 1827.91,987.736 1818.89,992.244C1796.22,1003.58 1769.88,1031.24 1755.88,1066.49C1741.74,1102.12 1740.3,1143.54 1758.24,1178.23C1764.47,1190.27 1782.3,1209.45 1806.83,1224.92C1837.19,1244.07 1876.82,1257.87 1895.78,1257.87C1969.21,1257.87 2038.91,1255.45 2101.98,1259.63C2175.94,1264.53 2240.16,1276.94 2285.77,1323.45C2316.14,1354.41 2337.3,1399.78 2350.18,1464.2C2363.07,1528.62 2359.8,1618.88 2353.24,1694.54C2344.82,1696.24 2338.51,1698.95 2333.95,1702.44C2136.54,1759.76 1945.98,1822.88 1871.08,1855.56C1686.63,1936.03 1440.31,2193.72 1316.07,2419.75C1312.59,2423.67 1306.39,2431.86 1302.41,2445.65C1296.96,2464.54 1283.35,2545.84 1283.35,2551.56C1283.35,2574.5 1273.52,2595.62 1268.09,2617.83C1261.85,2643.32 1258.77,2669.49 1263.43,2697.45C1285.1,2827.45 1267.82,2962.26 1293.38,3090.02C1355.84,3402.36 1654.72,3708.68 1933.28,3820.1C1983.21,3840.07 2035.56,3881.01 2085.95,3893.61C2252.07,3935.14 2224.93,3938.05 2355.03,3972.31C2357.72,4065.32 2349.92,4121.98 2332.95,4206.85C2315.03,4296.43 2252.17,4401.4 2155.87,4425.47C2120.22,4434.39 2094.83,4435.4 2060.88,4446.55C2059.13,4446.62 2041.5,4447.35 2028.9,4447.03C2005.54,4446.45 1978.26,4445.44 1950.74,4447.26C1878.91,4452 1808.56,4477.01 1772.64,4548.55C1766.16,4561.45 1752.29,4599.5 1752.88,4620.7C1753.47,4642.02 1762.04,4657.87 1772.65,4668.48C1778.37,4674.2 1790.05,4682.45 1805.27,4689.19C1825.4,4698.09 1853.75,4706.56 1859.44,4707.69C1889.38,4713.65 2072.75,4705.51 2124.89,4709.48L2125.75,4709.57C2193.34,4732.55 2277.19,4721.03 2340.89,4699.79C2356.39,4694.63 2391.53,4695.96 2421.92,4698.73C2439.05,4700.28 2454.71,4701.44 2462.22,4705.19C2469.44,4708.8 2482.93,4713.37 2501.04,4711.36C2513.14,4710.02 2536.47,4703.08 2543.44,4701.68C2571.86,4696 2814.03,4685.77 2970.56,4683.19C3026.78,4682.27 3087.52,4684.17 3090.84,4684.27C3124.98,4692.6 3206.92,4706.82 3265.7,4710.62C3289.04,4712.14 3309.59,4711.48 3324.91,4709.37C3402.31,4719.02 3501.91,4697.06 3612.47,4712.85C3822.13,4742.8 4046.16,4696.19 4258.55,4696.19C4363.07,4696.19 4486.53,4727.36 4593.58,4723.04C4681.65,4719.49 4759.69,4693.86 4816.9,4626.55C4836.52,4603.47 4842.28,4572.49 4822.85,4537.88C4811.7,4518.02 4786.65,4493.23 4752.46,4473.78C4707.13,4448 4646.31,4431.17 4594.31,4439.84C4531.48,4450.31 4420.03,4443.9 4332.08,4410.97C4285.04,4393.35 4243.2,4370.03 4230.12,4330.78C4195.45,4226.76 4205.82,4098.86 4218.76,3985.08C4315.94,3967.93 4411.68,3944.66 4503.33,3905.38C4618.19,3856.15 4730.38,3768.72 4825.74,3689.25C4839.52,3677.77 4854.06,3661.61 4868.63,3646.3C4876.4,3638.14 4883.46,3629.6 4891.26,3625.7C4925.63,3608.51 5030.53,3522.66 5097.99,3455.86C5131.1,3423.06 5155.3,3393.46 5163.43,3377.2C5204.57,3294.91 5241.86,3214.82 5270.24,3129.7C5275.4,3114.23 5278.36,3097.07 5280.75,3079.91C5282.61,3066.48 5282.7,3052.82 5287.74,3042.75C5303.83,3010.57 5305.57,2969.67 5300.84,2926.61C5298.43,2904.72 5294.6,2882.14 5293.54,2860.9C5292.97,2849.46 5292.18,2838.53 5296.62,2829.65C5311.48,2799.93 5315.46,2755.92 5309.48,2709.72C5302.13,2652.85 5281.52,2592.52 5267.02,2563.52C5254.84,2539.16 5251.91,2511.07 5247.85,2483.06C5241.95,2442.38 5234.94,2401.69 5216.7,2365.22C5199.47,2330.76 5161.29,2284.96 5111.79,2236.39C5007.98,2134.55 4853.4,2015.36 4778.96,1959.54C4670.08,1877.87 4482.58,1819.45 4353.85,1776.15C4304.84,1759.66 4318.77,1755.33 4242.99,1734.31L4242.99,1734.31C4241.59,1643.8 4240.54,1553.46 4246.95,1477.79C4251.28,1426.77 4258.22,1383.16 4273.09,1353.43C4304.08,1291.44 4361.78,1268.32 4422.85,1257.58C4499.73,1244.06 4582.88,1249.66 4646.9,1246.32C4690.84,1244.03 4727.69,1237.04 4753.53,1223.82C4781.68,1209.42 4800.55,1188.34 4809.99,1160.04C4826.2,1111.41 4820.63,1030.53 4753.93,993.993C4733.41,982.758 4688.06,973.875 4666.43,973.875C4541.93,973.875 4410.02,955.474 4287.3,975.929C4171.65,995.203 4046.45,964.967 3928.71,978.051C3870.41,984.528 3782.98,995.837 3723.65,983.971C3589.94,957.229 3423.6,972.942 3287.62,973.62C3240.8,960.379 3185.58,960.431 3127.45,965.725C3052.34,972.567 2971.43,988.966 2903.45,977.637C2813.68,962.674 2716.89,987.486 2626.36,974.554C2529.64,960.737 2403.1,950.812 2306.18,962.927C2268.43,967.646 1926.68,983.661 1856.33,985.839L1847.65,986.045ZM4698.66,1118.24C4699.46,1114.51 4699.83,1110.3 4699.53,1106.05C4699.33,1103.25 4699.93,1099.6 4696.97,1097.98C4689.88,1094.1 4673.91,1092.44 4666.43,1092.44C4548.34,1092.44 4423.2,1073.48 4306.79,1092.88C4189.08,1112.5 4061.65,1082.57 3941.8,1095.89C3873.19,1103.51 3770.23,1114.2 3700.39,1100.23C3570.95,1074.34 3409.19,1092.21 3278.84,1092.21C3272.47,1092.21 3266.14,1091.18 3260.09,1089.16C3214.85,1074.08 3157.76,1081.25 3098.97,1087.89C3025.29,1096.2 2949.39,1105.49 2883.96,1094.59C2795.07,1079.77 2699.23,1104.73 2609.6,1091.93C2522.37,1079.46 2408.29,1069.65 2320.88,1080.58C2283.7,1085.22 1958.71,1100.84 1869.59,1104.01C1867.8,1106.88 1866.02,1110.14 1865.13,1112.87C1864.49,1114.84 1863.55,1116.89 1863.14,1118.91L1900.22,1139.29C1974.82,1139.22 2045.62,1137.08 2109.81,1141.33C2196.92,1147.09 2272.81,1165.21 2333.17,1208.5C2395.17,1252.97 2443.03,1323.88 2466.44,1440.95C2484.43,1530.91 2476.37,1665.49 2466.06,1758.34C2462.72,1788.37 2437.34,1811.08 2407.14,1811.08C2407.14,1811.08 2385,1811.08 2385,1811.08C2187.43,1867.97 1993.34,1931.57 1918.49,1964.23C1749.27,2038.06 1525.27,2279.82 1414.87,2486.25L1401.85,2555.55C1401.31,2578.12 1396.17,2599.87 1390,2621.54C1384.81,2639.76 1377.01,2657.71 1380.38,2677.96C1401.84,2806.7 1384.33,2940.24 1409.64,3066.77C1464.84,3342.78 1731.15,3611.55 1977.32,3710.02C2022.56,3728.12 2069.04,3767.17 2114.7,3778.58C2294.19,3823.45 2248.07,3823.25 2418.35,3866.19C2429.87,3867.35 2441.04,3871.89 2450.31,3879.62L2451.49,3880.6C2467.68,3894.1 2475.11,3914.76 2472.17,3934.74C2478.38,4059.94 2470.08,4125.77 2449.21,4230.1C2423.24,4359.97 2324.24,4505.59 2184.63,4540.5C2151.84,4548.69 2128.49,4548.97 2097.05,4559.45C2075.86,4566.51 2033,4564.71 1985.13,4564.76C1965.61,4564.78 1944.86,4565.61 1925.41,4570.13C1910.13,4573.68 1895.34,4579.45 1885.08,4591.81C1911.25,4595.31 2012.92,4590.4 2079.4,4590.1C2121.39,4589.9 2153.34,4593.44 2161.82,4596.59C2205.87,4612.93 2261.35,4601.33 2303.4,4587.31C2328.16,4579.06 2384.12,4576.23 2432.67,4580.65C2456.46,4582.81 2478.45,4586.89 2495.06,4591.69C2503.41,4589.52 2516.62,4586.14 2520.19,4585.42C2550.03,4579.45 2804.25,4567.35 2968.62,4564.65C3045.29,4563.39 3103.95,4565.36 3117.75,4568.81C3146.77,4576.06 3220.65,4588.9 3273.36,4592.31C3286.72,4593.17 3305.74,4592.51 3307.18,4592.46C3315.82,4589.89 3324.96,4589.35 3333.87,4590.88C3411.88,4604.21 3514.61,4579.1 3629.23,4595.48C3833.47,4624.65 4051.66,4577.63 4258.55,4577.63C4345.97,4577.63 4446.6,4599.31 4539.89,4604.1C4597.26,4607.05 4652.01,4604.75 4694.84,4577.45L4693.84,4576.84C4670.72,4563.69 4640.33,4552.36 4613.8,4556.79C4536.36,4569.69 4398.9,4562.59 4290.5,4522C4206.6,4490.58 4140.97,4438.28 4117.64,4368.27C4073.22,4235 4089.66,4067.19 4106.16,3927.03C4109.27,3900.66 4129.51,3879.58 4155.73,3875.41C4258.48,3859.08 4360.11,3837.77 4456.62,3796.41C4561.36,3751.52 4662.88,3670.64 4749.84,3598.17C4763.3,3586.95 4777.23,3569.84 4791.54,3555.52C4806.89,3540.16 4822.89,3527.33 4838.23,3519.65C4863.42,3507.06 4931.62,3449.75 4987.13,3397.93C5020.55,3366.74 5050.08,3338.79 5057.38,3324.18C5095.96,3247.02 5131.15,3172.01 5157.76,3092.21C5162.86,3076.9 5163.72,3058.91 5166.33,3042.46C5169.42,3022.96 5174.15,3004.8 5181.69,2989.73C5186.07,2980.98 5185.2,2970.19 5184.62,2958.86C5183.53,2937.63 5179.7,2915.02 5177.3,2893.06C5172.6,2850.02 5174.38,2809.02 5190.57,2776.63C5196.94,2763.88 5194.46,2744.73 5191.9,2724.92C5186.45,2682.82 5171.71,2638.01 5160.97,2616.55C5143.24,2581.08 5136.42,2540.84 5130.51,2500.07C5126.44,2471.97 5123.25,2443.43 5110.66,2418.24C5097.47,2391.87 5066.63,2358.18 5028.76,2321.03C4928.71,2222.87 4779.56,2108.19 4707.83,2054.39C4607.77,1979.35 4434.34,1928.32 4316.05,1888.52C4262.42,1870.48 4288.88,1867.47 4170.03,1837.76C4143.95,1831.24 4125.52,1807.99 4125.13,1781.11C4122.35,1591.53 4120.68,1393.13 4167.04,1300.4C4210.04,1214.41 4281.93,1170.45 4364.12,1149.07C4434.76,1130.68 4513.36,1129.96 4582.38,1129.3C4614.27,1128.99 4643.79,1128.69 4668.61,1125.61C4679.1,1124.3 4693.34,1119.95 4698.66,1118.24ZM1308.84,2488.96C1305.02,2482.54 1301.84,2473.51 1301.84,2461.04C1301.84,2471.05 1304.35,2480.58 1308.84,2488.96ZM2324.01,1724.55C2318.51,1735.14 2316.18,1747.47 2317.95,1760.05C2322.06,1789.32 2347.1,1811.08 2376.65,1811.08C2376.65,1811.08 2325.25,1759.67 2324.01,1724.55Z" style="fill:white;"/>
                </g>
                <g transform="matrix(1,0,0,1,-434.393,-0.137875)">
                    <path d="M2266.22,1965.44C2260.31,1967.56 2253.4,1970.95 2246,1976.38C2220.16,1995.35 2107.58,2091.86 2091.38,2113.46C2014.07,2216.54 1963.86,2311.35 1933.3,2433.59C1899.42,2569.11 1854.7,2911.8 1872.93,3039.42C1883.76,3115.22 2031.05,3476.48 2077.64,3546.36C2092.15,3568.13 2112.06,3586.67 2134.41,3603.37C2157.97,3620.96 2184.83,3636.11 2205.32,3654.87C2262.85,3707.56 2304.21,3720.85 2382.98,3753.68C2402.88,3761.97 2425.73,3758.81 2442.62,3745.41C2459.52,3732 2467.81,3710.48 2464.26,3689.21C2443.51,3564.68 2474.12,3436.39 2461.55,3310.71C2455.03,3245.44 2442.72,3167.47 2450,3102C2480.03,2831.72 2434.49,2553.44 2461.55,2282.79C2466.72,2231.09 2453.53,2179.21 2458.68,2127.69C2471.54,1999.12 2457.53,2097.23 2471.79,1968.87C2474.04,1948.64 2465.75,1928.67 2449.84,1915.98C2433.92,1903.29 2412.61,1899.65 2393.39,1906.34C2322.69,1930.94 2327.64,1926.84 2266.22,1965.44ZM2306.35,2079.53C2308.93,2078.39 2311.45,2077.05 2313.9,2075.5C2327.47,2066.97 2337.77,2060.47 2346.16,2055.33C2345.41,2066.39 2343.86,2084.39 2340.71,2115.89C2335.55,2167.42 2348.75,2219.3 2343.58,2270.99C2316.56,2541.21 2362.14,2819.05 2332.16,3088.91C2324.02,3162.16 2336.28,3249.48 2343.58,3322.51C2352.98,3416.5 2339.23,3511.91 2339.55,3606.19L2339.55,3606.19C2321.59,3596.63 2304.51,3584.94 2285.39,3567.43C2265.36,3549.08 2240.48,3533.19 2216.68,3516.53C2201.28,3505.75 2185.97,3495.12 2176.29,3480.6C2134.17,3417.41 2000.1,3091.18 1990.31,3022.66C1973.44,2904.57 2016.98,2587.74 2048.33,2462.34C2074.87,2356.17 2119.08,2274.13 2186.23,2184.6C2198.19,2168.66 2274.14,2104.92 2306.35,2079.53Z" style="fill:white;"/>
                </g>
                <g transform="matrix(1,0,0,1,-434.393,-0.137875)">
                    <path d="M2978.4,1806.88C3189.63,1785.64 3153.76,1764.99 3365.51,1778.28C3439.92,1782.95 3591.28,1785.99 3659.74,1808.81C3683.94,1816.88 3700.27,1839.53 3700.27,1865.05C3700.27,2053.17 3693.94,2266.58 3709.52,2453.55C3723.95,2626.8 3701.34,2802.4 3717.18,2976.54C3742.77,3258.03 3713.75,3497.97 3681.71,3776.62C3681.57,3777.82 3681.39,3779.02 3681.18,3780.22C3673.34,3824.38 3672.56,3828.79 3672.48,3829.23C3660.72,3895.42 3624.27,3882.93 3615.85,3879.08C3379.89,3927.22 3248.99,3932.69 3093.78,3906.82C3062.7,3901.64 3023.62,3906.31 2995.41,3900.06C2954.17,3890.92 2925.46,3868.76 2915.92,3825.58C2905.39,3795.95 2895.02,3742.27 2888.29,3661.71C2797.6,3106.86 2777.74,2827.83 2804.99,2824.7C2819.58,2821.37 2848.18,2900.12 2887.16,3062.23C2890.58,2880.31 2892.84,2707.47 2886.64,2660.98C2872.17,2552.44 2888.66,2206.93 2903.82,2085.72C2910.45,2032.63 2908.35,1957.64 2897.71,1902.07C2895.11,1895.82 2892.54,1888.21 2891.06,1880.27C2887.63,1861.92 2890.22,1843.08 2890.99,1840.56C2899.41,1812.8 2918.93,1803.96 2932.77,1800.34C2945.96,1796.89 2961.79,1796.47 2978.4,1806.88ZM3562.79,3768.78C3364.63,3807.6 3249.13,3812.52 3113.27,3789.87C3093.01,3786.5 3069.71,3786.65 3047.55,3786.28C3042.15,3786.19 3034.87,3785.57 3029.09,3784.98L3028.89,3783.79C3020.81,3736.52 3012.89,3691.01 3005.11,3647.4C3000.65,3587.89 2998.39,3510.82 2999.43,3414.68C3002.01,3175.48 3014.89,2725.68 3004.17,2645.31C2990.46,2542.49 3007.11,2215.24 3021.46,2100.42C3027.87,2049.19 3027.35,1981.2 3020.32,1921.57C3186.62,1902.39 3167.08,1884.62 3358.08,1896.61C3412.52,1900.03 3513.07,1900.67 3581.6,1911.9L3581.6,1911.9C3580.85,2091.21 3576.8,2288.66 3591.36,2463.39C3605.82,2636.94 3583.24,2812.84 3599.1,2987.28C3623.86,3259.63 3595.12,3491.83 3564.13,3761.27L3562.79,3768.78Z" style="fill:white;"/>
                </g>
                <g transform="matrix(1,0,0,1,-434.393,-0.137875)">
                    <path d="M3671.32,4040.74C3673.34,4022.52 3666.82,4004.39 3653.65,3991.63C3640.49,3978.87 3622.16,3972.92 3604.01,3975.51C3431.08,4000.23 3246.65,4001.58 3074.95,3972.96C3028.88,3965.28 3020.2,3969.37 2974.13,3961.69C2956.64,3958.78 2938.76,3963.84 2925.4,3975.5C2912.05,3987.16 2904.61,4004.18 2905.13,4021.91C2908.68,4142.68 2913.59,4218.36 2921.93,4250.72C2927.58,4272.63 2936.86,4285.79 2944.15,4293.09C2947.22,4296.16 2948.74,4301.89 2951.47,4308.11C2957.48,4321.84 2963.41,4338.11 2970.03,4355.03C2986.85,4398 3008.39,4443.5 3038.93,4474.03C3063.24,4498.34 3101.62,4513.97 3145.38,4521.14C3191.9,4528.76 3245.1,4527.54 3278.57,4530.82C3292.45,4532.19 3337.28,4542.27 3342.92,4542.27C3346.34,4542.27 3349.74,4541.97 3353.11,4541.38C3453.99,4523.79 3535.82,4474.9 3602.57,4408.15C3645.63,4365.09 3664.21,4310.78 3669.97,4251.06C3676.57,4182.72 3664.03,4106.35 3671.32,4040.74ZM3551.19,4101.57C3551.97,4137.21 3554.26,4173.88 3553.59,4209.36C3552.78,4252.48 3548.88,4294.17 3518.74,4324.31C3471.07,4371.98 3413.46,4408.12 3342.63,4422.68C3329.11,4419.85 3299.36,4413.73 3290.16,4412.83C3263.14,4410.17 3222.85,4410.72 3184.09,4406.7C3160.07,4404.21 3135.7,4403.13 3122.76,4390.19C3098.03,4365.46 3085.29,4324.41 3072.51,4291.29C3060.97,4261.39 3048.78,4235.73 3036.27,4218.98C3035.32,4213.54 3033.1,4200.27 3031.85,4187.42C3029.37,4161.99 3027.51,4128.2 3025.88,4085.91C3034.1,4086.72 3043.53,4087.93 3055.46,4089.91C3216.07,4116.68 3387.1,4119.1 3551.19,4101.57Z" style="fill:white;"/>
                </g>
                <g transform="matrix(1,0,0,1,-434.393,-0.137875)">
                    <path d="M3628.97,1724.97L3629.78,1725.13L3631,1725.32L3631.66,1725.44L3632.1,1725.49L3632.73,1725.59L3633.7,1725.68L3634.66,1725.8L3635.29,1725.85L3635.74,1725.89L3636.41,1725.93L3637.64,1726.01L3638.47,1726.03L3638.78,1726.05L3639.25,1726.05L3640.6,1726.07L3641.54,1726.05L3641.83,1726.05L3642.25,1726.03L3643.54,1725.99L3644.48,1725.91L3644.85,1725.89L3645.32,1725.84L3646.46,1725.75L3647.34,1725.64L3647.82,1725.59L3648.41,1725.5L3649.34,1725.38L3650.11,1725.24L3650.75,1725.14L3651.48,1724.99L3652.19,1724.87L3652.82,1724.72L3653.63,1724.55L3654.48,1724.34L3654.99,1724.22L3655.49,1724.08L3656.46,1723.83L3657.4,1723.54L3657.76,1723.43L3658.14,1723.31L3659.24,1722.96L3660.22,1722.6L3660.47,1722.52L3660.76,1722.41L3661.96,1721.97L3662.94,1721.55L3663.13,1721.48L3663.37,1721.38L3664.61,1720.85L3665.57,1720.39L3665.74,1720.31L3665.96,1720.2L3667.2,1719.6L3668.09,1719.12L3668.28,1719.03L3668.54,1718.88L3669.72,1718.24L3670.51,1717.76L3670.75,1717.62L3671.1,1717.4L3672.16,1716.76L3672.85,1716.29L3673.16,1716.1L3673.62,1715.78L3674.53,1715.16L3675.1,1714.74L3675.49,1714.47L3676.07,1714.01L3676.81,1713.46L3677.27,1713.08L3677.74,1712.72L3678.44,1712.12L3679.01,1711.65L3679.36,1711.33L3679.9,1710.87L3680.7,1710.12L3681.12,1709.74L3681.38,1709.48L3681.98,1708.91L3682.84,1708.02L3683.13,1707.73L3683.32,1707.53L3683.96,1706.86L3684.85,1705.85L3685.05,1705.63L3685.19,1705.46L3685.85,1704.7L3686.71,1703.63L3686.87,1703.43L3686.98,1703.28L3687.64,1702.45L3688.43,1701.35L3688.58,1701.15L3688.69,1700.98L3689.32,1700.11L3690.01,1699.04L3690.18,1698.79L3690.32,1698.56L3690.89,1697.68L3691.47,1696.68L3691.67,1696.34L3691.85,1696.01L3692.34,1695.16L3692.8,1694.27L3693.05,1693.82L3693.28,1693.34L3693.68,1692.56L3694.02,1691.81L3694.3,1691.22L3694.58,1690.56L3694.89,1689.88L3695.12,1689.28L3695.43,1688.56L3695.75,1687.68L3695.97,1687.12L3696.13,1686.66L3696.43,1685.83L3696.77,1684.74L3696.92,1684.29L3697.02,1683.94L3697.3,1683.04L3697.62,1681.78L3697.74,1681.38L3697.8,1681.1L3698.04,1680.19L3698.31,1678.86L3698.41,1678.41L3698.47,1678.1L3698.63,1677.29L3698.82,1676.07L3698.93,1675.4L3698.99,1674.96L3699.08,1674.33L3699.18,1673.37L3699.3,1672.41L3699.34,1671.77L3699.39,1671.33L3699.42,1670.66L3699.51,1669.43L3699.53,1668.6L3699.54,1668.28C3701.86,1576.73 3699.83,1449.4 3672.03,1338.2C3650.62,1252.55 3582.23,1199.53 3492.76,1171.17C3384.26,1136.78 3243.66,1139.42 3159.87,1139.42C3153.97,1139.42 3148.12,1140.3 3142.49,1142.03C3108.89,1152.33 3049.66,1177.3 3009.36,1206.65C2985.53,1224.02 2967.76,1243.71 2958.44,1262.35C2889.46,1400.31 2859.59,1493.72 2880.91,1664.29C2883.01,1681.12 2892.23,1696.25 2906.23,1705.84C2920.22,1715.43 2937.65,1718.56 2954.11,1714.45C3013.98,1699.48 3091.83,1694.54 3177.36,1692.69C3335.39,1689.27 3514.77,1702.14 3628.66,1724.91L3628.97,1724.97ZM3581.67,1596.82C3581.06,1525.07 3575.75,1441.93 3557.01,1366.95C3545.66,1321.56 3504.35,1299.22 3456.93,1284.19C3364.13,1254.78 3244.83,1257.68 3169.28,1257.96C3147.63,1265.36 3116.81,1278.52 3091.42,1294.29C3079.95,1301.41 3068.52,1307.31 3064.49,1315.37C3016.18,1412 2989.92,1482.17 2993.39,1586.6C3047.28,1579.09 3108.98,1575.58 3174.79,1574.15C3312.18,1571.18 3464.82,1580.14 3581.67,1596.82Z" style="fill:white;"/>
                </g>
            </g>
        </g>
    </g>
</svg>
